<?xml version="1.0" encoding="UTF-8"?>
<svg id="Capa_2" data-name="Capa 2" xmlns="http://www.w3.org/2000/svg" viewBox="0 0 1236.89 422.58">
  <defs>
    <style>
      .cls-1 {
        fill: #e5231f;
      }

      .cls-2 {
        font-family: Poppins-Light, Poppins;
        font-size: 57.88px;
        font-weight: 300;
      }

      .cls-2, .cls-3 {
        fill: #fef8f8;
      }

      .cls-4 {
        fill: #62398e;
      }
    </style>
  </defs>
  <g id="Capa_1-2" data-name="Capa 1">
    <g>
      <text class="cls-2" transform="translate(183.86 389.93) scale(1.05 1)"><tspan x="0" y="0">Diseños que cuentan historias</tspan></text>
      <path class="cls-3" d="M1217.92,137.59c16.74-10.6,21.82-32.83,11.29-49.65l-26.05-41.59c-3.35-5.35-7.81-10.02-13.3-13.14-10.99-6.27-23.07-6.19-33.24-1.43-2.17-17.84-17.38-31.72-35.8-31.72h-50.34c-8.08,0-15.52,2.7-21.55,7.2-6.1-4.54-13.63-7.26-21.8-7.26h-84.48c-14.49,0-27.48,8.51-33.36,21.51l-6.99,12.18-7.02-12.23c-5.89-12.97-18.87-21.46-33.34-21.46h-84.54c-3.28,0-6.44.47-9.46,1.28-3.02-.81-6.19-1.28-9.46-1.28h-183.86c-9.12,0-17.46,3.35-23.88,8.91-6.56-5.65-15.04-8.91-23.91-8.91h-85.67c-3.54,0-6.96.53-10.21,1.48-3.18-.9-6.52-1.42-9.98-1.42h-114.44c-3.46,0-6.8.52-9.98,1.42-3.25-.94-6.66-1.48-10.21-1.48h-84.48c-14.64,0-27.45,8.47-33.49,21.84l-6.6,12.02-7.35-12.56C148.49,8.42,135.56,0,121.15,0H36.61C16.39,0,0,16.39,0,36.61v247.48c0,20.22,16.39,36.61,36.61,36.61h81.72c20.22,0,36.61-16.39,36.61-36.61v-26.39c2.44.5,4.96.76,7.52.76,1.9,0,3.78-.14,5.61-.42v26.04c0,20.22,16.39,36.61,36.61,36.61h216.29c3.5,0,6.88-.52,10.09-1.45,3.21.92,6.59,1.45,10.09,1.45h81.42c9.05,0,17.34-3.3,23.73-8.76,6.53,5.6,14.9,8.76,23.78,8.76h86.01c3.42,0,6.72-.51,9.87-1.39,3.14.88,6.43,1.39,9.84,1.39h82.84c3.24,0,6.37-.47,9.37-1.27,3,.8,6.14,1.27,9.39,1.27h81.72c20.22,0,36.61-16.39,36.61-36.61v-28.25c2.13.38,4.3.57,6.51.57s4.47-.2,6.63-.59v28.27c0,20.22,16.39,36.61,36.61,36.61h216.29c20.22,0,36.61-16.39,36.61-36.61v-41.19c4.32-3.16,8.01-7.23,10.62-12.14l23.66-44.44c9.32-17.51,2.7-39.32-14.74-48.72Z"/>
      <g>
        <g>
          <path class="cls-4" d="M222.22,297.38c-11.01,0-19.93-8.92-19.93-19.93v-109.49l-31.1,63.8c-2.18,4.47-8.52,4.54-10.8.13l-33.08-63.93v109.49c0,11.01-8.92,19.93-19.93,19.93h-53.22c-11.01,0-19.93-8.92-19.93-19.93V58.46c0-11.01,8.92-19.93,19.93-19.93h58.59c7.29,0,14.07,3.74,17.96,9.9l35.21,55.73,33.05-55.28c3.84-6.42,10.76-10.34,18.23-10.34h58.18c11.01,0,19.93,8.92,19.93,19.93v146.82c0,17.4,14.1,31.5,31.5,31.5h83.2c11.01,0,19.93,8.92,19.93,19.93v20.73c0,11.01-8.92,19.93-19.93,19.93h-187.79Z"/>
          <path class="cls-4" d="M562.47,284.75l-30.91-50.51v43.21c0,11.01-8.92,19.93-19.93,19.93h-52.93c-11.01,0-19.93-8.92-19.93-19.93V58.46c0-11.01,8.92-19.93,19.93-19.93h57.52c8.68,0,16.77,4.38,21.51,11.65l35.07,53.76-.57-39.35c-.21-14.33,11.35-26.06,25.68-26.06h149.63c11.01,0,19.93,8.92,19.93,19.93v21c0,10.17-8.25,18.42-18.42,18.42h-57.01c-14.88,0-26.94,12.06-26.94,26.94v152.62c0,11.01-8.92,19.93-19.93,19.93h-60.13c-9.2,0-17.74-4.78-22.54-12.63Z"/>
          <path class="cls-4" d="M647.81,154.97h145.18c12.71,0,23.02,10.32,23.02,23.02v59.7c0,6.14-4.98,11.12-11.12,11.12h-155.89c-13.22,0-23.96-10.74-23.96-23.96v-47.11c0-12.57,10.2-22.77,22.77-22.77Z" transform="translate(518.63 922.42) rotate(-90)"/>
          <path class="cls-4" d="M963.02,297.38c-11.01,0-19.93-8.92-19.93-19.93v-109.49l-32.19,61.88c-2.26,4.35-8.48,4.34-10.73,0l-32.06-61.87v109.49c0,11.01-8.92,19.93-19.93,19.93h-53.22c-11.01,0-19.93-8.92-19.93-19.93V58.46c0-11.01,8.92-19.93,19.93-19.93h54.58c9.77,0,18.85,5.05,24.02,13.34l32.08,51.56,32.02-51.55c5.16-8.31,14.25-13.36,24.03-13.36h54.51c11.01,0,19.93,8.92,19.93,19.93v164.11c0,7.85,6.36,14.21,14.21,14.21h100.49c11.01,0,19.93,8.92,19.93,19.93v20.73c0,11.01-8.92,19.93-19.93,19.93h-187.79Z"/>
          <path class="cls-4" d="M326.94,227.84c-12.69,0-22.98-10.29-22.98-22.98v-123.9l.18-4.26v-18.17c0-11.01,8.92-19.93,19.93-19.93h85.95c11.01,0,19.93,8.92,19.93,19.93v20.47c0,8.87-7.26,16.02-16.13,15.88l-17.22-.26v28.38h15.04c2.04,0,3.71,1.64,3.74,3.69l.21,17.1c.03,2.05-1.61,3.74-3.66,3.78l-11.06.23h-4.26v27.63l13.54.21c10.8.17,19.63,9.13,19.63,19.93v12.35c0,11.01-8.92,19.93-19.93,19.93h-82.9Z"/>
        </g>
        <path class="cls-1" d="M1207.39,172.86l-47.88-25.5,45.98-28.79c1.96-1.23,2.56-3.82,1.33-5.78l-27.75-44.32c-1.23-1.96-3.82-2.56-5.78-1.33l-43.99,27.55v-51.9c0-2.32-1.88-4.2-4.2-4.2h-52.29c-2.32,0-4.2,1.88-4.2,4.2v56.17l-49.58-26.4c-2.05-1.09-4.59-.31-5.68,1.73l-24.57,46.15c-1.09,2.05-.31,4.59,1.73,5.68l47.88,25.5-45.98,28.79c-1.96,1.23-2.56,3.82-1.33,5.78l27.75,44.31c1.23,1.96,3.82,2.56,5.79,1.33l43.99-27.55v51.9c0,2.32,1.88,4.2,4.2,4.2h52.29c2.32,0,4.2-1.88,4.2-4.2v-56.17l49.58,26.4c2.05,1.09,4.59.31,5.68-1.73l24.58-46.15c1.09-2.05.31-4.59-1.73-5.68Z"/>
      </g>
    </g>
  </g>
</svg>